<?xml version="1.0" encoding="UTF-8"?>
<svg xmlns="http://www.w3.org/2000/svg" width="270" height="44" viewBox="0 0 270 44">
  <g id="Grupo_436" data-name="Grupo 436" transform="translate(-300 -90)">
    <path id="Trazado_445" data-name="Trazado 445" d="M794.448,374.68a2.489,2.489,0,0,1,.8.127,1.807,1.807,0,0,1,1.1,1,2.091,2.091,0,0,1,.165.862v1.711a2.092,2.092,0,0,1-.165.862,1.828,1.828,0,0,1-.437.615,1.937,1.937,0,0,1-.627.38,2.12,2.12,0,0,1-.748.133h-.051l2.42,3.13h-2.382l-2.4-3.13H791.2v3.13H789.24v-8.82Zm-3.245,3.979H794.5v-2.2H791.2Z" transform="translate(-301.217 -275.423)" fill="#2a2b39"></path>
    <path id="Trazado_446" data-name="Trazado 446" d="M824.244,383.5v-8.82h6.2v1.774h-4.233v1.584H829.5v1.774h-3.295v1.913h4.322V383.5Z" transform="translate(-326.578 -275.423)" fill="#2a2b39"></path>
    <path id="Trazado_447" data-name="Trazado 447" d="M852.075,374.68h6.855v1.774h-2.446V383.5h-1.964v-7.046h-2.446Z" transform="translate(-346.741 -275.423)" fill="#2a2b39"></path>
    <path id="Trazado_448" data-name="Trazado 448" d="M883.676,383.5v-8.82h1.964v3.751h3.447V374.68h1.964v8.82h-1.964v-3.295H885.64V383.5Z" transform="translate(-369.637 -275.423)" fill="#2a2b39"></path>
    <path id="Trazado_449" data-name="Trazado 449" d="M920.292,374.68h1.964v8.82h-1.964Z" transform="translate(-396.166 -275.423)" fill="#2a2b39"></path>
    <path id="Trazado_450" data-name="Trazado 450" d="M937.266,383.5v-8.82h1.9l3.751,5.614V374.68h1.9v8.82h-1.9l-3.751-5.627V383.5Z" transform="translate(-408.463 -275.423)" fill="#2a2b39"></path>
    <path id="Trazado_451" data-name="Trazado 451" d="M973.789,374.68h1.965V378.3l2.851-3.624h2.23l-3.041,3.789,3.586,5.031h-2.37l-3.257-4.638V383.5h-1.965Z" transform="translate(-434.925 -275.423)" fill="#2a2b39"></path>
    <path id="Trazado_452" data-name="Trazado 452" d="M1007.6,374.68h1.964v8.82H1007.6Z" transform="translate(-459.421 -275.423)" fill="#2a2b39"></path>
    <path id="Trazado_453" data-name="Trazado 453" d="M1024.574,383.5v-8.82h1.9l3.751,5.614V374.68h1.9v8.82h-1.9l-3.751-5.627V383.5Z" transform="translate(-471.719 -275.423)" fill="#2a2b39"></path>
    <path id="Trazado_454" data-name="Trazado 454" d="M1062.628,374.68h3.029a2.486,2.486,0,0,1,.8.127,1.808,1.808,0,0,1,1.1,1,2.087,2.087,0,0,1,.165.862v.7h-2.015v-.507a.489.489,0,0,0-.082-.291.285.285,0,0,0-.247-.114h-2.864v5.271h2.889q.33,0,.33-.431v-.862h-1.445v-1.774h3.46v2.852a2.088,2.088,0,0,1-.165.862,1.807,1.807,0,0,1-1.1,1,2.5,2.5,0,0,1-.8.127h-3.118a2.492,2.492,0,0,1-.8-.127,1.808,1.808,0,0,1-1.1-1,2.1,2.1,0,0,1-.165-.862V376.67a1.847,1.847,0,0,1,.672-1.483,2.092,2.092,0,0,1,.684-.38A2.428,2.428,0,0,1,1062.628,374.68Z" transform="translate(-497.748 -275.423)" fill="#2a2b39"></path>
    <path id="Trazado_455" data-name="Trazado 455" d="M789.591,432.108H787.17v-1.432h6.375v1.432h-2.433V439.5h-1.521Z" transform="translate(-299.717 -315.993)" fill="#3cdbc0"></path>
    <path id="Trazado_456" data-name="Trazado 456" d="M817.99,430.676h1.521v3.853h3.865v-3.853H824.9V439.5h-1.521v-3.523h-3.865V439.5H817.99Z" transform="translate(-322.046 -315.993)" fill="#3cdbc0"></path>
    <path id="Trazado_457" data-name="Trazado 457" d="M853.547,430.676h5.906v1.432h-4.385V434.2h3.447v1.432h-3.447v2.433h4.474V439.5h-5.995Z" transform="translate(-347.808 -315.993)" fill="#3cdbc0"></path>
    <path id="Trazado_458" data-name="Trazado 458" d="M898.811,430.676h5.754v1.432h-4.233v2.307h3.7v1.433h-3.7v3.65h-1.521Z" transform="translate(-380.603 -315.993)" fill="#3cdbc0"></path>
    <path id="Trazado_459" data-name="Trazado 459" d="M933.513,437.7v-7.021h1.609v7.009a1.692,1.692,0,0,1-1.863,1.812h-3.409a1.732,1.732,0,0,1-1.876-1.812v-7.009H929.6V437.7c0,.228.089.368.279.368h3.346C933.425,438.065,933.513,437.925,933.513,437.7Z" transform="translate(-401.732 -315.993)" fill="#3cdbc0"></path>
    <path id="Trazado_460" data-name="Trazado 460" d="M963.516,432.108h-2.421v-1.432h6.375v1.432h-2.433V439.5h-1.521Z" transform="translate(-425.728 -315.993)" fill="#3cdbc0"></path>
    <path id="Trazado_461" data-name="Trazado 461" d="M996.9,437.7v-7.021h1.61v7.009a1.692,1.692,0,0,1-1.863,1.812h-3.409a1.732,1.732,0,0,1-1.875-1.812v-7.009h1.622V437.7c0,.228.089.368.279.368h3.346C996.813,438.065,996.9,437.925,996.9,437.7Z" transform="translate(-447.657 -315.993)" fill="#3cdbc0"></path>
    <path id="Trazado_462" data-name="Trazado 462" d="M1028.809,439.5h-1.521v-8.821h4.829a1.7,1.7,0,0,1,1.875,1.812v1.9a1.692,1.692,0,0,1-1.875,1.8h-.38l2.5,3.308h-1.926l-2.408-3.308h-1.09Zm3.561-4.74v-2.649h-3.561v2.649Z" transform="translate(-473.686 -315.993)" fill="#3cdbc0"></path>
    <path id="Trazado_463" data-name="Trazado 463" d="M1060.822,430.676h5.906v1.432h-4.385V434.2h3.447v1.432h-3.447v2.433h4.474V439.5h-5.995Z" transform="translate(-497.981 -315.993)" fill="#3cdbc0"></path>
    <g id="Mint__Logo_Color" data-name="Mint _Logo Color" transform="translate(195.02 -250.97)">
      <path id="Trazado_27" data-name="Trazado 27" d="M172.448,342.494a16.389,16.389,0,0,1,5.236,3.937,18.336,18.336,0,0,1,4.587,12.263v10.175H171.479V358.694a7.87,7.87,0,0,0-1.905-5.273,4.824,4.824,0,0,0-7.564,0,7.87,7.87,0,0,0-1.9,5.273v8.7h0a18.321,18.321,0,0,1-4.584,12.145,16.431,16.431,0,0,1-5.236,3.937,15.526,15.526,0,0,1-13.313,0,16.39,16.39,0,0,1-5.236-3.937,18.326,18.326,0,0,1-4.584-12.145h0v-8.7a7.87,7.87,0,0,0-1.9-5.273,4.824,4.824,0,0,0-7.564,0,7.87,7.87,0,0,0-1.9,5.273v10.175H104.98V358.694a18.336,18.336,0,0,1,4.587-12.263,16.461,16.461,0,0,1,5.236-3.937,15.527,15.527,0,0,1,13.313,0,16.39,16.39,0,0,1,5.236,3.937,18.336,18.336,0,0,1,4.587,12.263v8.577a7.871,7.871,0,0,0,1.9,5.273,4.825,4.825,0,0,0,7.564,0,7.871,7.871,0,0,0,1.9-5.273v-8.577A18.336,18.336,0,0,1,153.9,346.43a16.461,16.461,0,0,1,5.236-3.937,15.527,15.527,0,0,1,13.313,0m33.9,30.05a7.871,7.871,0,0,1-1.9-5.273V356.878H193.648v10.511h0a18.329,18.329,0,0,0,4.587,12.145,16.43,16.43,0,0,0,5.236,3.937,15.435,15.435,0,0,0,6.656,1.5v-10.6a5.167,5.167,0,0,1-3.782-1.829m74.634-22.359H270.94V340.97H260.148v9.215h-4.726v10.6h4.726v6.489a7.871,7.871,0,0,1-1.9,5.273,4.825,4.825,0,0,1-7.564,0,7.871,7.871,0,0,1-1.905-5.273v-8.577a18.336,18.336,0,0,0-4.587-12.263,16.461,16.461,0,0,0-5.236-3.937,15.527,15.527,0,0,0-13.313,0,16.42,16.42,0,0,0-5.236,3.937,18.336,18.336,0,0,0-4.587,12.263v10.175h10.792V358.694a7.87,7.87,0,0,1,1.9-5.273,4.824,4.824,0,0,1,7.564,0,7.87,7.87,0,0,1,1.9,5.273v8.7h0a18.327,18.327,0,0,0,4.584,12.145,16.431,16.431,0,0,0,5.236,3.937,15.526,15.526,0,0,0,13.313,0,16.42,16.42,0,0,0,5.236-3.937,18.336,18.336,0,0,0,4.587-12.263v-6.489h6.442Z" transform="translate(0 0)" fill="#2a2b39"></path>
      <path id="Trazado_28" data-name="Trazado 28" d="M416.7,348.251a7.111,7.111,0,1,0,7.111-7.111,7.112,7.112,0,0,0-7.111,7.111" transform="translate(-224.766 -0.123)" fill="#3cdbc0"></path>
    </g>
  </g>
</svg>
